<svg xmlns="http://www.w3.org/2000/svg" width="1200" height="630" viewBox="0 0 1200 630">
  <!-- Background -->
  <rect width="1200" height="630" fill="#0050c8"/>
  
  <!-- Timeline visualization -->
  <line x1="100" y1="315" x2="1100" y2="315" stroke="#ffffff" stroke-width="4"/>
  
  <!-- Timeline points -->
  <g fill="#ffffff">
    <circle cx="150" cy="315" r="8"/>
    <circle cx="250" cy="315" r="8"/>
    <circle cx="350" cy="315" r="8"/>
    <circle cx="450" cy="315" r="8"/>
    <circle cx="550" cy="315" r="8"/>
    <circle cx="650" cy="315" r="8"/>
    <circle cx="750" cy="315" r="8"/>
    <circle cx="850" cy="315" r="8"/>
    <circle cx="950" cy="315" r="8"/>
    <circle cx="1050" cy="315" r="8"/>
  </g>
  
  <!-- Year labels -->
  <g fill="#ffffff" font-family="Arial, sans-serif" font-size="14" text-anchor="middle">
    <text x="150" y="345">1950</text>
    <text x="250" y="345">1960</text>
    <text x="350" y="345">1970</text>
    <text x="450" y="345">1980</text>
    <text x="550" y="345">1990</text>
    <text x="650" y="345">2000</text>
    <text x="750" y="345">2010</text>
    <text x="850" y="345">2020</text>
    <text x="950" y="345">2024</text>
    <text x="1050" y="345">2025</text>
  </g>
  
  <!-- Title -->
  <text x="600" y="150" font-family="Arial, sans-serif" font-size="72" font-weight="bold" fill="#ffffff" text-anchor="middle">AI History Timeline</text>
  
  <!-- Subtitle -->
  <text x="600" y="210" font-family="Arial, sans-serif" font-size="28" fill="#ffffff" text-anchor="middle" opacity="0.9">From Turing Test to GPT-5</text>
  
  <!-- Key milestones with connecting lines -->
  <g>
    <!-- Turing Test -->
    <line x1="150" y1="315" x2="150" y2="270" stroke="#ffffff" stroke-width="2" opacity="0.6"/>
    <text x="150" y="260" font-family="Arial, sans-serif" font-size="12" fill="#ffffff" text-anchor="middle">Turing Test</text>
    
    <!-- Deep Blue -->
    <line x1="620" y1="315" x2="620" y2="270" stroke="#ffffff" stroke-width="2" opacity="0.6"/>
    <text x="620" y="260" font-family="Arial, sans-serif" font-size="12" fill="#ffffff" text-anchor="middle">Deep Blue</text>
    
    <!-- AlexNet -->
    <line x1="760" y1="315" x2="760" y2="380" stroke="#ffffff" stroke-width="2" opacity="0.6"/>
    <text x="760" y="395" font-family="Arial, sans-serif" font-size="12" fill="#ffffff" text-anchor="middle">AlexNet</text>
    
    <!-- ChatGPT -->
    <line x1="880" y1="315" x2="880" y2="380" stroke="#ffffff" stroke-width="2" opacity="0.6"/>
    <text x="880" y="395" font-family="Arial, sans-serif" font-size="12" fill="#ffffff" text-anchor="middle">ChatGPT</text>
    
    <!-- GPT-5 -->
    <line x1="1050" y1="315" x2="1050" y2="270" stroke="#ffffff" stroke-width="2" opacity="0.6"/>
    <text x="1050" y="260" font-family="Arial, sans-serif" font-size="12" fill="#ffffff" text-anchor="middle">GPT-5</text>
  </g>
  
  <!-- Domain -->
  <text x="600" y="500" font-family="Arial, sans-serif" font-size="24" fill="#ffffff" text-anchor="middle" opacity="0.8">aihistory.franzai.com</text>
  
  <!-- Decorative elements -->
  <g opacity="0.1" fill="#ffffff">
    <circle cx="100" cy="100" r="40"/>
    <circle cx="1100" cy="100" r="40"/>
    <circle cx="100" cy="530" r="40"/>
    <circle cx="1100" cy="530" r="40"/>
  </g>
</svg>